<svg width="24" height="39" viewBox="0 0 24 39" fill="none" xmlns="http://www.w3.org/2000/svg">
<path d="M0.780149 38.5969L11.0941 22.9369C12.2281 21.2269 13.2001 19.6699 14.0101 18.2659C14.8201 16.8619 15.4321 15.5659 15.8461 14.3779C16.2781 13.1719 16.4941 12.0289 16.4941 10.9489C16.4941 9.07688 15.9631 7.59188 14.9011 6.49388C13.8571 5.39588 12.4261 4.84688 10.6081 4.84688C8.80815 4.84688 7.14315 5.23388 5.61315 6.00788C4.10115 6.78188 2.70615 7.81688 1.42815 9.11288L0.780149 3.71288C2.02215 2.70488 3.51615 1.84088 5.26215 1.12088C7.02615 0.400877 8.98815 0.0408771 11.1481 0.0408771C13.4521 0.0408771 15.3871 0.499877 16.9532 1.41788C18.5191 2.33588 19.6981 3.57788 20.4901 5.14388C21.2822 6.70988 21.6782 8.46488 21.6782 10.4089C21.6782 12.0829 21.4532 13.6759 21.0031 15.1879C20.5531 16.6819 19.8781 18.2389 18.9781 19.8589C18.0781 21.4789 16.9621 23.2969 15.6301 25.3129L9.90615 33.9529H23.1361V38.5969H0.780149Z" fill="#EF7998"/>
</svg>
