<svg width="25" height="40" viewBox="0 0 25 40" fill="none" xmlns="http://www.w3.org/2000/svg">
<path d="M11.7139 39.671C9.64391 39.671 7.70891 39.401 5.90891 38.861C4.12691 38.321 2.46191 37.637 0.913906 36.809L2.15591 32.057C3.70391 32.939 5.22491 33.659 6.71891 34.217C8.23091 34.757 9.91391 35.027 11.7679 35.027C14.1259 35.027 15.9619 34.442 17.2759 33.272C18.6079 32.084 19.2739 30.563 19.2739 28.709C19.2739 26.621 18.5539 24.947 17.1139 23.687C15.6739 22.427 13.4239 21.797 10.3639 21.797H7.98791V17.153H10.3639C12.6859 17.153 14.5219 16.604 15.8719 15.506C17.2399 14.408 17.9239 12.905 17.9239 10.997C17.9239 8.96304 17.4019 7.46004 16.3579 6.48804C15.3139 5.49804 13.8199 5.00304 11.8759 5.00304C10.3459 5.00304 8.91491 5.30004 7.58291 5.89404C6.25091 6.48804 4.94591 7.21704 3.66791 8.08104L2.80391 2.84304C4.18991 2.05104 5.68391 1.43904 7.28591 1.00704C8.90591 0.575037 10.6699 0.359037 12.5779 0.359037C14.9179 0.359037 16.8979 0.782037 18.5179 1.62804C20.1559 2.47404 21.3979 3.65304 22.2439 5.16504C23.1079 6.65904 23.5399 8.38704 23.5399 10.349C23.5399 12.797 22.8199 14.867 21.3799 16.559C19.9579 18.233 18.0319 19.331 15.6019 19.853V18.611C18.4639 19.169 20.6959 20.258 22.2979 21.878C23.9179 23.48 24.7279 25.703 24.7279 28.547C24.7279 30.851 24.1519 32.84 22.9999 34.514C21.8659 36.17 20.3179 37.448 18.3559 38.348C16.3939 39.23 14.1799 39.671 11.7139 39.671Z" fill="#EF7998"/>
</svg>
