<svg width="25" height="40" viewBox="0 0 25 40" fill="none" xmlns="http://www.w3.org/2000/svg">
<path d="M11.0379 39.5324C9.03991 39.5324 7.12291 39.2714 5.28691 38.7494C3.45091 38.2274 1.85791 37.5344 0.507906 36.6704L1.74991 31.9184C3.08191 32.6384 4.46791 33.2594 5.90791 33.7814C7.34791 34.3034 8.96791 34.5644 10.7679 34.5644C13.1799 34.5644 15.1329 33.8894 16.6269 32.5394C18.1209 31.1714 18.8679 29.3444 18.8679 27.0584C18.8679 24.4664 18.0579 22.4954 16.4379 21.1454C14.8179 19.7954 12.7119 19.1204 10.1199 19.1204C8.75191 19.1204 7.45591 19.2194 6.23191 19.4174C5.02591 19.6154 3.78391 19.8764 2.50591 20.2004L4.82791 0.976365H22.6479L22.4319 5.83637H9.03991L7.63591 17.6624L6.50191 15.4484C7.31191 15.2864 8.16691 15.1604 9.06691 15.0704C9.96691 14.9624 10.8759 14.9084 11.7939 14.9084C14.4759 14.9084 16.7619 15.4394 18.6519 16.5014C20.5419 17.5454 21.9819 18.9854 22.9719 20.8214C23.9799 22.6574 24.4839 24.7364 24.4839 27.0584C24.4839 29.6144 23.8899 31.8284 22.7019 33.7004C21.5319 35.5544 19.9299 36.9944 17.8959 38.0204C15.8799 39.0284 13.5939 39.5324 11.0379 39.5324Z" fill="#EF7998"/>
</svg>
