<svg xmlns="http://www.w3.org/2000/svg" width="306" height="92" viewBox="0 0 306 92"><g transform="translate(-8449 -19726)"><rect width="306" height="92" transform="translate(8449 19726)" fill="none"/><g transform="translate(-3982 -770.413)"><g transform="translate(12432 20514.414)"><path d="M36.635-192.722c-4.593,1.413-8.543,6.391-9.314,11.755C27.161-179.682,27-169.854,27-158.1v20.652H38.562v-6.584c0-3.629.064-6.584.128-6.584a14.7,14.7,0,0,1,1.766,1l1.638,1.028v11.145H53.336v-22.129c0-20.619-.032-22.257-.578-24.056A14.281,14.281,0,0,0,44.7-192.4,19.016,19.016,0,0,0,36.635-192.722Zm8.9,1.156a12.706,12.706,0,0,1,6.809,8.543c.225.867.353,9.25.353,21.872v20.491H44.665V-151.1L41.2-153.249l-3.437-2.12-.1,7.355-.064,7.387-3.95-.1-3.918-.1v-42.074l.739-1.766C33.167-191.212,39.686-194.2,45.532-191.565Z" transform="translate(-27 193.016)"/><path d="M61.67-164.486c-1.542,1.092-1.67,1.8-1.67,10.31,0,7.259.079,7.985.513,8.335s.611-.081.515-6.922c-.064-3.983,0-7.58.1-8a1.636,1.636,0,0,1,2.569-.9l.835.546-.1,8.8-.1,8.768,1.381.835,1.349.835v-20.941l-1.092-1.092A2.8,2.8,0,0,0,63.629-165,3.919,3.919,0,0,0,61.67-164.486Z" transform="translate(-49.401 173.998)"/><path d="M119-187.058v5.942h8.672v43.68h12.2v-43.68h8.672V-193H119Zm29.227-1.445v4.143l-4.4.1-4.432.1-.1,21.744-.064,21.776h-8.351v-43.68h-8.672v-8.351h26.015Z" transform="translate(-89.452 193.005)"/><path d="M222-165.218v27.782h12.2v-13.811H237.1v13.811h12.2V-193H237.1v29.548H234.2V-193H222Zm11.627-12.622.1,14.87,3.308.1,3.276.1v-29.9h8.351v52.03h-8.351v-13.843l-3.276.1-3.308.1-.1,6.809-.064,6.841h-8.351v-52.03h8.351Z" transform="translate(-159.371 193.005)"/><path d="M318-165.218v27.782h26.658l-.064-5.877-.1-5.845-7.291-.1-7.323-.064V-193H318Zm11.337-5.621.064,21.679,7.323.1,7.291.064v8.351h-22.8v-52.062l4.015.1,4.015.1Z" transform="translate(-224.538 193.005)"/><path d="M411-165.218v27.782h24.409V-149.32H423.2v-9.956h12.2V-171.16H423.2v-9.956h12.2V-193H411ZM434.767-188.5v4.175l-6.006.064-6.038.1v13.489l6.038.1,6.006.064v8.029l-6.006.064-6.038.1v13.168l6.038.1,6.006.064v8.351H414.212v-52.03h20.555Z" transform="translate(-287.669 193.005)"/><path d="M498-187.058v5.942h5.781v31.475H498v12.2h23.446v-12.2h-6.1l.064-15.673.1-15.641,2.987-.1,2.955-.1V-193H498Zm22.8-1.285v4.336h-5.781v34.687H520.8v8.672H501.212v-8.672h5.781v-34.687h-5.781v-8.672H520.8Z" transform="translate(-346.727 193.005)"/><path d="M593.3-192.222a15.3,15.3,0,0,0-9.121,7.483,14.768,14.768,0,0,0-1.445,10.984c1.413,5.46,4.368,8.479,12.783,13.072,4.946,2.7,6.648,4.464,6.648,6.841,0,2.216-2.377,4.4-4.818,4.4-1.67,0-4.143-1.606-6.263-3.983l-1.831-2.12-2.312,2.023c-1.253,1.124-3.34,2.891-4.593,3.886A15.532,15.532,0,0,0,580-147.547a24.918,24.918,0,0,0,2.505,2.923c4.4,4.753,8.7,6.969,14.035,7.291a16.338,16.338,0,0,0,11.883-3.661,17.068,17.068,0,0,0,5.492-16.444c-1.574-6.1-4.786-9.6-13.04-14.164-4.143-2.28-5.428-3.18-5.974-4.207-1.574-3.051,1.413-5.749,4.914-4.432a6.869,6.869,0,0,1,1.927,1.317l1.028,1,4.85-2.987c2.666-1.638,4.914-3.115,5.01-3.276.321-.514-2.248-3.5-4.368-5.107a14.76,14.76,0,0,0-9.635-3.372A14.893,14.893,0,0,0,593.3-192.222Zm9.346.867a20,20,0,0,1,3.661,1.509c1.991,1.124,5.492,4.432,5.492,5.171,0,.257-1.542,1.445-3.4,2.634l-3.372,2.184-1.188-1.156c-1.863-1.734-3.083-2.248-5.267-2.088-2.89.225-5.074,2.28-5.074,4.818,0,2.6,1.06,3.661,7.548,7.516,7.772,4.593,10.7,7.58,11.883,12.173a15.537,15.537,0,0,1-1.285,10.984c-3.822,7.8-14.26,10.117-22.225,4.946-1.9-1.253-5.235-4.079-5.235-4.5a77.267,77.267,0,0,1,5.942-4.978c.289-.225.931.161,2.12,1.188,5.107,4.464,11.337,3.4,12.494-2.152.835-3.983-.964-6.167-8.479-10.438-7.548-4.272-10.246-7.323-11.081-12.59C583.629-185.734,592.943-193.86,602.643-191.355Z" transform="translate(-402.39 192.805)"/><path d="M696-171.578c0,22.9.1,24.088,1.606,27.107a16.421,16.421,0,0,0,5.46,5.556,13.022,13.022,0,0,0,12.43.032,12.43,12.43,0,0,0,6.006-6.263l1-2.088.1-22.9L722.658-193H711.1v20.876c0,20.459,0,20.844-.642,21.2a2.1,2.1,0,0,1-2.569-.642c-.193-.385-.321-8.383-.321-21V-193H696Zm11.177.064c.064,20.459.1,21,.707,21.872a3.471,3.471,0,0,0,5.3.321l.964-.964.1-21.2.064-21.2h8.061l-.1,21.744-.1,21.776-.867,1.863a11.487,11.487,0,0,1-7.772,6.809c-5.171,1.51-10.856-1.317-13.3-6.52l-.867-1.831-.1-21.936-.1-21.936,3.95.1,3.951.1Z" transform="translate(-481.134 193.005)"/><path d="M794.321-192.711c0,.128.642,1.7,1.413,3.5l1.413,3.244-1,.193c-.578.128-1.285.289-1.574.353-.546.161-.578,1.574-.578,24.088v23.9h12.526v-5.524c0-3.019.1-5.4.257-5.267.129.128,1.253,2.569,2.505,5.428l2.248,5.2,6.809.1,6.809.064-.418-1.028c-.257-.578-2.088-4.818-4.047-9.41l-3.629-8.351,1.156-1.895a23.012,23.012,0,0,0,.353-23.221,26.587,26.587,0,0,0-9.314-8.993A21.446,21.446,0,0,0,798.111-193,12.667,12.667,0,0,0,794.321-192.711Zm11.241,1.22a19.111,19.111,0,0,1,8.383,5.2,20.714,20.714,0,0,1,6.263,13.3,22.31,22.31,0,0,1-3.469,13.329l-1.124,1.7,3.34,7.933c1.863,4.368,3.5,8.254,3.661,8.64l.289.739h-9.218l-2.377-5.653a44.52,44.52,0,0,0-2.73-5.813,3.416,3.416,0,0,0-1.51.385l-1.188.482v10.6h-8.672v-22.514c0-12.365.128-22.418.257-22.322.161.1,2.409,5.267,5.042,11.5,2.6,6.231,4.882,11.466,5.042,11.659.321.353,2.152-1.606,2.184-2.28,0-.225-2.6-6.52-5.781-14.067-3.18-7.516-5.781-13.746-5.781-13.875C798.175-193,803.25-192.261,805.562-191.491Z" transform="translate(-547.659 193.005)"/><path d="M831-158.142c0,.964,5.267,13.232,5.589,12.943a10.177,10.177,0,0,0,.128-3.276,9.936,9.936,0,0,0-1-4.786,13.273,13.273,0,0,0-3.758-4.786C831.064-158.688,831-158.688,831-158.142Z" transform="translate(-572.775 169.613)"/><path d="M898-165.218v27.782h24.088V-149.32l-6.006-.064-6.038-.1v-9.635l6.038-.1,6.006-.064V-171.16h-12.2v-9.956h12.2V-193H898Zm23.7-23.221.1,4.111H909.562v13.811h12.2v8.029h-12.2V-149H921.8l-.1,4.079-.1,4.111-10.181.1-10.213.064v-52.03l10.213.064,10.181.1Z" transform="translate(-618.257 193.005)"/></g><path d="M12447.027,20543.6l-4.489-2.7-.1-.168.209-.721,4.683,2.82Z" transform="translate(0.707 1.737)"/></g></g></svg>