<svg xmlns="http://www.w3.org/2000/svg" width="306" height="92" viewBox="0 0 306 92"><g transform="translate(-8923 -19726)"><rect width="306" height="92" transform="translate(8923 19726)" fill="none"/><g transform="translate(8930 19743.9)"><path d="M278.841,11.431c1.222-5.051,2.526-7.36,6.654-8.881V2.388H270.259v.163c2.145,1,2.906,2.227,2.906,4.291a20.707,20.707,0,0,1-.76,4.59l-8.881,35.55c-1.222,5.051-2.526,7.36-6.654,8.881v.163H286.12l5.513-15.48h-.163c-7.034,10.266-10.727,13.715-19.309,13.715h-3.992l10.673-42.828ZM260.7,12.572c1.521-5.893,4.291-8.5,8.419-10.021V2.388h-13.8v.163a5.941,5.941,0,0,1,3.911,5.975,15.061,15.061,0,0,1-.543,3.829l-7.061,28.19c-1.9,7.659-6.138,13.009-12.628,13.009-5.513,0-7.876-3.449-7.876-8.419A21.032,21.032,0,0,1,231.8,40l7.115-28.57c1.3-5.051,2.526-7.36,6.654-8.881V2.388H230.337v.163c2.145,1,2.987,2.227,2.987,4.372a20.114,20.114,0,0,1-.76,4.508l-7.278,29.113a21.51,21.51,0,0,0-.625,4.671c0,6.9,4.291,11.569,12.031,11.569,9.261,0,14.72-6.735,17-16ZM194.9,45.514A71.3,71.3,0,0,1,197.2,29.192c3.666-14.557,8.419-25.827,15.7-25.827,3.911,0,5.513,3.666,5.513,9.505a71.106,71.106,0,0,1-2.308,16.322c-3.666,14.557-8.419,25.827-15.7,25.827-3.911,0-5.513-3.693-5.513-9.505M188.46,39.54c0,10.429,4.59,17.245,11.949,17.245,13.552,0,24.442-20.531,24.442-37.912,0-10.429-4.59-17.245-11.949-17.245-13.552,0-24.442,20.531-24.442,37.912m-.76-20.993h.163l4.209-16.919c-1.086,1.141-1.847,1.9-3.531,1.9-2.064,0-4.291-1.928-9.179-1.928-8.8,0-15.236,6.735-15.236,16.322,0,11.787,14.258,13.552,14.258,24.659,0,6.436-3.286,12.411-10.266,12.411-5.975,0-9.723-6.273-10.347-16.784h-.163l-3.531,18.522c1.385-1.521,2.444-2.308,3.992-2.308,2.308,0,4.59,2.308,10.048,2.308,8.881,0,16.322-7.2,16.322-17.463,0-11.569-14.475-14.095-14.475-24.958,0-5.757,3.449-10.945,9.424-10.945,7.088.027,7.767,7.686,8.31,15.181M121.135,31.2l-8.962-20.993a10.817,10.817,0,0,1-1.086-4.047c0-1.9,1.086-2.743,2.607-3.612V2.388H100.061v.163c2.824,1.928,3.666,3.829,5.214,7.2l10.646,23.98V47.605c0,5.051-1.086,6.817-4.753,8.283v.163h15.7v-.163c-3.666-1.467-4.753-3.2-4.753-8.283V33.728l10.646-23.98c1.521-3.368,2.689-5.432,5.595-7.2V2.388H127.545v.163c2.308,1,3.449,2.526,3.449,4.753a10.379,10.379,0,0,1-1.086,4.128L121.135,31.2ZM80.86,54.178V4.234H81.7c10.048,0,16.919,8.2,16.919,24.361,0,18.685-6.9,25.583-16.023,25.583H80.86ZM70.051,56.024H83.223c11.325,0,22.514-8.8,22.514-27.429,0-17.3-10.727-26.207-23.98-26.207H70.051v.163c3.748,1.521,4.454,3.829,4.454,8.881v35.55c0,5.051-.679,7.36-4.454,8.881v.163ZM62.529,29.192c0,14.557-2.689,25.8-9.8,25.8S43,43.722,43,29.165,45.609,3.338,52.725,3.338s9.8,11.325,9.8,25.854m7.659,0c0-16.077-8.039-27.565-17.463-27.565S35.344,13.115,35.344,29.192,43.3,56.758,52.725,56.758c9.424.027,17.463-11.461,17.463-27.565M11.309,54.313V29.491H14.3c7.74,0,12.574,4.128,12.574,12.411,0,8.337-4.834,12.411-12.547,12.411Zm0-26.479V4.071h1.847c7.061,0,11.325,4.291,11.325,12.031S20.189,27.835,13.156,27.835Zm4.209,28.19c10.809,0,18.141-3.829,18.141-14.095,0-8.8-8.419-13.253-15.317-13.552,6.98-.679,12.71-4.916,12.71-12.248,0-9.587-7.2-13.715-16.919-13.715H.5v.163C4.248,4.1,4.954,6.407,4.954,11.458v35.55c0,5.051-.679,7.36-4.454,8.881v.163H15.518v-.027Z" transform="translate(-0.364 -1.093)"/><path d="M153.5,56.1l3.639-19.092h.407v.136c.625,10.592,4.345,16.648,10.211,16.648,7.007,0,10.13-6.165,10.13-12.275,0-5.4-3.368-8.528-6.925-11.841-3.612-3.34-7.333-6.789-7.333-12.819C163.626,7.324,170.09.4,179,.4a17.65,17.65,0,0,1,6.545,1.276,8.448,8.448,0,0,0,2.634.652c1.575,0,2.308-.679,3.422-1.847l.353-.38L187.58,17.617h-.407v-.136c-.516-7.034-1.086-15.018-8.175-15.045-6.111,0-9.288,5.432-9.288,10.809,0,5.3,3.422,8.528,7.034,11.949,3.666,3.476,7.441,7.061,7.441,13.009a18.173,18.173,0,0,1-4.861,12.683,15.951,15.951,0,0,1-11.6,4.916,17.927,17.927,0,0,1-7.2-1.521,8.248,8.248,0,0,0-2.852-.788c-1.521,0-2.58.842-3.884,2.254Zm4.209-2.906a8.4,8.4,0,0,1,2.96.815,17.394,17.394,0,0,0,7.088,1.494,15.706,15.706,0,0,0,11.406-4.834,17.763,17.763,0,0,0,4.78-12.493c0-5.812-3.748-9.369-7.36-12.819-3.5-3.313-7.115-6.735-7.115-12.14,0-5.513,3.286-11.08,9.56-11.08,7.224.027,7.9,7.9,8.419,14.964L191.463,1a4.217,4.217,0,0,1-3.286,1.575,7.958,7.958,0,0,1-2.716-.679A17.483,17.483,0,0,0,179,.643c-8.745,0-15.1,6.817-15.1,16.186,0,5.92,3.693,9.342,7.251,12.628,3.449,3.2,7.007,6.491,7.007,12.031,0,6.246-3.2,12.547-10.4,12.547-5.948,0-9.75-6-10.456-16.485L153.931,55.2c1.222-1.276,2.281-2.01,3.775-2.01Zm78.622,2.634c-7.5,0-12.167-4.481-12.167-11.705a21.117,21.117,0,0,1,.625-4.7l7.278-29.113a19.646,19.646,0,0,0,.76-4.481c0-2.064-.815-3.259-2.906-4.237l-.081-.027V1.159h15.507v.38l-.081.027c-4.1,1.521-5.3,3.829-6.572,8.8l-7.115,28.57a20.5,20.5,0,0,0-.679,5.106c0,5.35,2.743,8.283,7.74,8.283,6,0,10.429-4.59,12.493-12.9l7.061-28.19a14.4,14.4,0,0,0,.543-3.8A5.73,5.73,0,0,0,254.9,1.594l-.081-.027V1.159H268.89v.38l-.081.027c-4.535,1.657-6.952,4.535-8.337,9.94l-7.007,28.217C250.912,50.125,244.829,55.828,236.328,55.828Zm-6.111-54.4a4.357,4.357,0,0,1,2.879,4.4,20,20,0,0,1-.76,4.535l-7.278,29.113a20.5,20.5,0,0,0-.625,4.644c0,7.061,4.563,11.433,11.9,11.433,8.365,0,14.339-5.649,16.865-15.887L260.2,11.452c1.385-5.377,3.775-8.31,8.229-10.021H255.2a6.041,6.041,0,0,1,3.775,6,14.783,14.783,0,0,1-.543,3.856l-7.061,28.19c-2.091,8.446-6.627,13.117-12.764,13.117-5.16,0-8.012-3.042-8.012-8.555a20.909,20.909,0,0,1,.679-5.16l7.115-28.57c1.276-4.943,2.471-7.333,6.464-8.881H230.218Zm-30.172,54.4c-7.333,0-12.085-6.817-12.085-17.381a51.588,51.588,0,0,1,7.17-25.556C200.018,4.825,206.183.4,212.538.4c7.333,0,12.085,6.817,12.085,17.381a51.588,51.588,0,0,1-7.17,25.556C212.592,51.4,206.4,55.828,200.045,55.828ZM212.538.67c-6.246,0-12.357,4.4-17.191,12.384a51.292,51.292,0,0,0-7.115,25.393c0,10.4,4.644,17.109,11.814,17.109,6.246,0,12.357-4.4,17.191-12.384a51.293,51.293,0,0,0,7.115-25.393c0-10.4-4.644-17.109-11.814-17.109ZM52.388,55.8H52.36c-4.7,0-9.071-2.77-12.33-7.821-3.34-5.16-5.187-12.221-5.187-19.88,0-7.686,1.847-14.747,5.187-19.88C43.29,3.169,47.689.4,52.36.4c9.858,0,17.6,12.167,17.6,27.7,0,9.777-2.933,18.3-8.012,23.383a13.559,13.559,0,0,1-9.56,4.318ZM52.36.67C42.692.67,35.115,12.728,35.115,28.1S42.692,55.529,52.36,55.529a13.263,13.263,0,0,0,9.4-4.237c5.051-5.024,7.93-13.5,7.93-23.193C69.687,12.728,62.083.67,52.36.67Zm74.277,54.424H110.668v-.38l.081-.027c3.666-1.467,4.671-3.232,4.671-8.147V32.689l-10.7-24.116c-1.521-3.286-2.336-5.106-5.106-6.98l-.054-.027V1.159h13.9v.38l-.081.027c-1.385.788-2.526,1.6-2.526,3.5a10.63,10.63,0,0,0,1.086,3.992l8.826,20.694,8.636-19.472a10.046,10.046,0,0,0,1.086-4.074c0-2.145-1.059-3.639-3.368-4.617l-.081-.027V1.159h11.08v.38l-.054.027c-2.96,1.792-4.128,3.992-5.54,7.143L121.885,32.662V46.513c0,4.943,1,6.681,4.671,8.147l.081.027v.407ZM111.1,54.823h15.1c-3.612-1.494-4.59-3.34-4.59-8.31v-13.9L132.259,8.6c1.412-3.123,2.58-5.35,5.513-7.17h-10.32a5,5,0,0,1,3.313,4.78,10.494,10.494,0,0,1-1.086,4.182l-8.908,20.043-9.1-21.292a10.945,10.945,0,0,1-1.086-4.1c0-1.955,1.113-2.824,2.526-3.639h-13.2c2.716,1.9,3.612,3.829,5.051,7.007l.081.163,10.646,24.008V46.513c0,4.916-1.032,6.817-4.59,8.31Zm-95.813.272H0v-.38l.081-.027c3.775-1.521,4.372-3.829,4.372-8.745V10.366c0-4.916-.6-7.224-4.372-8.745L0,1.594V1.186H13.769c10.836,0,17.055,5.051,17.055,13.851,0,6.382-4.481,11.08-11.542,12.221a18.8,18.8,0,0,1,9.016,3.5,12.352,12.352,0,0,1,5.133,10.076c0,9.4-6.111,14.2-18.141,14.231v.027ZM.435,54.823H15.018l.136-.027C27.1,54.8,33.16,50.1,33.16,40.837c0-6.192-5.323-12.981-15.181-13.416v-.272c7.659-.733,12.574-5.486,12.574-12.112,0-4.535-1.6-8.012-4.753-10.347-2.879-2.118-7.034-3.232-12.031-3.232H.435C4.1,3.033,4.725,5.5,4.725,10.366v35.55c0,4.861-.625,7.333-4.291,8.908Zm285.43.244H256.371v-.38l.081-.027c4.182-1.548,5.4-3.965,6.572-8.772l8.881-35.55a21.006,21.006,0,0,0,.76-4.563c0-2.064-.76-3.2-2.824-4.155l-.081-.027V1.159h15.507v.38l-.081.027c-4.182,1.548-5.4,3.965-6.572,8.772L267.967,53.031H271.8c8.473,0,12.058-3.232,19.2-13.66l.027-.054h.435l-5.595,15.752ZM256.805,54.8h28.842l5.3-14.91c-3.286,4.78-5.948,8.2-8.853,10.374-2.852,2.118-5.948,3.042-10.32,3.042h-4.155l.054-.163,10.673-42.828c1.168-4.834,2.39-7.278,6.464-8.881H270.14a4.278,4.278,0,0,1,2.8,4.318,21.153,21.153,0,0,1-.76,4.617L263.3,45.915c-1.168,4.834-2.39,7.305-6.491,8.881Zm-173.946.272H69.551v-.38l.081-.027c3.775-1.521,4.372-3.829,4.372-8.745V10.339c0-4.916-.6-7.224-4.372-8.745l-.081-.027V1.159H81.392c6.844,0,12.764,2.308,17.055,6.654,4.617,4.671,7.061,11.488,7.061,19.689,0,8.636-2.444,15.833-7.034,20.8a21.1,21.1,0,0,1-15.616,6.762ZM69.986,54.8H82.859a20.747,20.747,0,0,0,15.4-6.681c4.563-4.916,6.98-12.031,6.98-20.613,0-15.833-9.369-26.072-23.845-26.072H69.986c3.666,1.575,4.291,4.047,4.291,8.908v35.55c0,4.861-.625,7.333-4.291,8.908Zm130.059-.733c-3.748,0-5.649-3.232-5.649-9.641A70.856,70.856,0,0,1,196.7,28.073c4.454-17.68,9.478-25.936,15.833-25.936,3.748,0,5.649,3.232,5.649,9.641a71.562,71.562,0,0,1-2.308,16.349c-4.454,17.707-9.478,25.936-15.833,25.936ZM212.538,2.408c-6.192,0-11.135,8.175-15.561,25.719a71.741,71.741,0,0,0-2.308,16.295c0,6.219,1.82,9.369,5.377,9.369,6.192,0,11.135-8.175,15.561-25.719a71.339,71.339,0,0,0,2.308-16.295C217.915,5.559,216.1,2.408,212.538,2.408ZM52.36,54.036c-4.508,0-9.858-4.508-9.858-25.963S47.852,2.11,52.36,2.11c6.409,0,9.94,9.234,9.94,25.99,0,7.794-.76,13.986-2.254,18.413-1.684,5-4.264,7.523-7.686,7.523Zm0-51.654c-3.286,0-5.785,2.471-7.414,7.36-1.439,4.372-2.173,10.537-2.173,18.332s.733,13.959,2.173,18.332c1.629,4.888,4.1,7.36,7.414,7.36,3.612,0,9.668-3.34,9.668-25.664,0-9.614-1.249-25.719-9.668-25.719Zm-38.4,50.975h-3.15V28.263h3.123c3.965,0,7.088,1.059,9.288,3.123,2.281,2.173,3.422,5.323,3.422,9.424,0,8.093-4.508,12.547-12.683,12.547Zm-2.879-.272h2.879c8.012,0,12.411-4.372,12.411-12.275S21.944,28.534,13.932,28.534H11.08V53.085Zm71.154.136H80.36V3.006h.978a14.726,14.726,0,0,1,12.33,6.165c3.123,4.291,4.725,10.456,4.725,18.332C98.393,48.767,89.594,53.221,82.234,53.221Zm-1.6-.272h1.6c7.251,0,15.887-4.427,15.887-25.447,0-7.821-1.575-13.932-4.671-18.169A14.445,14.445,0,0,0,81.338,3.277h-.706V52.949ZM12.791,26.878H10.809V2.843h1.983c7.278,0,11.461,4.427,11.461,12.167,0,3.829-1.032,6.817-3.069,8.853-1.983,2.01-4.807,3.015-8.392,3.015Zm-1.711-.272h1.711c7.224,0,11.189-4.128,11.189-11.6,0-7.55-4.074-11.9-11.189-11.9H11.08V26.606Z"/><path d="M534.3,49.2h1.629V76.847H534.3Z" transform="translate(-389.195 -35.765)"/><path d="M486.4,97.1h27.647v1.629H486.4Z" transform="translate(-354.304 -70.657)"/></g></g></svg>