<svg xmlns="http://www.w3.org/2000/svg" width="306" height="92" viewBox="0 0 306 92"><g transform="translate(-0.365 0.014)"><path d="M0,0H306V92H0Z" transform="translate(0.365 -0.014)" fill="rgba(255,255,255,0)"/><path d="M168.153,0h-8.129V15.294C158.85,3.855,154.618,0,148.417,0c-4.651,0-8.129,2.3-10.266,8.338C136.6,2.347,132.159,0,124.784,0h-8.129V15.294h-.21C115.272,3.855,111.04,0,104.839,0,98.847,0,94.573,3.855,93.232,15.294h-.21V0H82.547L78.692,22.837h-.21L75.172,0H64.32V8.716C63.356,3.478,60.255,0,54.431,0,48.02,0,44.542,4.442,43.955,10.056,42.2,2.514,38.34,0,33.312,0,27.7,0,23.633,3.31,22.082,12.78,21.705,5.992,19.778,0,11.607,0,5.2,0,0,5.824,0,22.292,0,36.413,2.891,44.584,11.607,44.584c7.752,0,9.889-6.2,10.475-12.4,1.55,9.3,5.615,12.4,11.23,12.4,5.405,0,9.3-3.1,11.02-11.816.377,5.615,2.514,11.816,10.475,11.816,4.442,0,7.752-1.927,9.512-5.238v5.028h5.992V11.816h.21l5.405,32.558h4.442l5.405-32.558h.21V44.374h7.165V29.08h.21c1.173,11.439,5.405,15.294,11.607,15.294,5.992,0,10.266-3.855,11.607-15.294h.21V44.374h8.129V26.566h3.31c4.064,0,6.788-1.55,8.506-4.064,0,16.677,4.651,21.873,11.816,21.873,5.992,0,10.266-3.855,11.607-15.294V44.374h18.395V37.586H168.278V0h-.126ZM15.546,27.53c-.21,6.2-.754,10.056-3.478,10.056-2.514,0-3.31-1.55-3.31-15.671,0-14.33,1.76-15.294,3.478-15.294,1.927,0,2.891,2.724,2.891,9.679l6.788-.21a57.313,57.313,0,0,0-.21,6.2,50.716,50.716,0,0,0,.21,5.824l-6.369-.587Zm20.909-.8c0,9.3-1.173,11.02-2.891,11.02-1.927,0-2.891-1.927-2.891-11.02V17.641c0-9.3,1.173-11.02,2.891-11.02,1.927,0,2.891,1.927,2.891,11.02ZM55.227,37.8c-3.478,0-3.478-4.274-3.478-6.579H44.793a62.835,62.835,0,0,0,.587-9.093,38.724,38.724,0,0,0-.21-5.028c3.478,7.961,13.576,10.266,13.576,16.677,0,1.467-.8,4.023-3.52,4.023Zm-3.855-27.32c0-2.3,1.173-3.855,3.1-3.855,3.31,0,3.31,4.064,3.31,6.411h6.788v12.99c-3.9-7.04-13.2-9.763-13.2-15.546ZM107.94,26.733c0,9.3-1.173,11.23-2.891,11.23-1.927,0-2.891-1.927-2.891-11.23V17.641c0-9.3,1.173-11.23,2.891-11.23,1.927,0,2.891,1.927,2.891,11.23Zm17.6-6.579h-.754V6.788h.587c2.724,0,5.238.21,5.238,6.579C130.608,18.814,128.849,20.155,125.538,20.155Zm25.77,6.579c0,9.3-1.173,11.23-2.891,11.23-1.927,0-2.891-1.927-2.891-11.23V17.641c0-9.3,1.173-11.23,2.891-11.23,1.927,0,2.891,1.927,2.891,11.23ZM179.8,0h8.129V44.374H179.8Zm31.385,0H189.1V6.788h6.956V44.374h8.129V6.788h6.956V0m33.522,0V23.423h-.21L237.081,0H229.12V38.759L224.259.042H212.443l-6.2,44.374h6.788l1.173-9.889h6.662l1.173,9.889H236.16V17.473h.21l8.716,26.943h6.369V0ZM215.25,28.074l2.514-21.286h.21l2.3,21.286Z" transform="translate(27.153 23.533)"/></g></svg>