<svg xmlns="http://www.w3.org/2000/svg" width="119.912" height="21.174" viewBox="0 0 119.912 21.174"><path d="M21.064,7.587l-6.652-1L11.43.367a.711.711,0,0,0-1.223,0L7.226,6.591l-6.652,1A.659.659,0,0,0,.193,8.7l4.833,4.854L3.883,20.421a.674.674,0,0,0,.994.687l5.942-3.218,5.942,3.219a.674.674,0,0,0,.994-.687L16.613,13.56l4.833-4.854a.66.66,0,0,0-.381-1.119Z" transform="translate(0 -0.018)" fill="#ffc107"/><path d="M21.064,7.587l-6.652-1L11.43.367a.711.711,0,0,0-1.223,0L7.226,6.591l-6.652,1A.659.659,0,0,0,.193,8.7l4.833,4.854L3.883,20.421a.674.674,0,0,0,.994.687l5.942-3.218,5.942,3.219a.674.674,0,0,0,.994-.687L16.613,13.56l4.833-4.854a.66.66,0,0,0-.381-1.119Z" transform="translate(24.343 -0.018)" fill="#ffc107"/><path d="M21.064,7.587l-6.652-1L11.43.367a.711.711,0,0,0-1.223,0L7.226,6.591l-6.652,1A.659.659,0,0,0,.193,8.7l4.833,4.854L3.883,20.421a.674.674,0,0,0,.994.687l5.942-3.218,5.942,3.219a.674.674,0,0,0,.994-.687L16.613,13.56l4.833-4.854a.66.66,0,0,0-.381-1.119Z" transform="translate(49.588 -0.018)" fill="#ffc107"/><path d="M21.064,7.587l-6.652-1L11.43.367a.711.711,0,0,0-1.223,0L7.226,6.591l-6.652,1A.659.659,0,0,0,.193,8.7l4.833,4.854L3.883,20.421a.674.674,0,0,0,.994.687l5.942-3.218,5.942,3.219a.674.674,0,0,0,.994-.687L16.613,13.56l4.833-4.854a.66.66,0,0,0-.381-1.119Z" transform="translate(73.931 -0.018)" fill="#ffc107"/><path d="M21.064,7.587l-6.652-1L11.43.367a.711.711,0,0,0-1.223,0L7.226,6.591l-6.652,1A.659.659,0,0,0,.193,8.7l4.833,4.854L3.883,20.421a.674.674,0,0,0,.994.687l5.942-3.218,5.942,3.219a.674.674,0,0,0,.994-.687L16.613,13.56l4.833-4.854a.66.66,0,0,0-.381-1.119Z" transform="translate(98.274 -0.018)" fill="#ffc107"/></svg>