<svg xmlns="http://www.w3.org/2000/svg" width="311.098" height="92" viewBox="0 0 311.098 92"><g transform="translate(2164 5383)"><g transform="translate(12 154)"><rect width="306" height="92" transform="translate(-2176 -5537)" fill="none"/></g><circle cx="23.5" cy="23.5" r="23.5" transform="translate(-2162 -5361)"/><path d="M10.81-32.994v19.74a6.532,6.532,0,0,0,1.457,4.559,5.5,5.5,0,0,0,4.277,1.6,5.652,5.652,0,0,0,4.324-1.6,6.4,6.4,0,0,0,1.5-4.559v-19.74h8.037V-13.3a14,14,0,0,1-1.88,7.473,12.038,12.038,0,0,1-5.053,4.606A15.889,15.889,0,0,1,16.4.329,15.493,15.493,0,0,1,9.424-1.2,11.388,11.388,0,0,1,4.559-5.8a14.71,14.71,0,0,1-1.786-7.5V-32.994ZM46.577.329A16.972,16.972,0,0,1,40.091-.846a10.572,10.572,0,0,1-4.583-3.478A9.5,9.5,0,0,1,33.7-9.87h8.554a4.151,4.151,0,0,0,1.269,2.8,4.079,4.079,0,0,0,2.82.964,4.41,4.41,0,0,0,2.82-.822A2.751,2.751,0,0,0,50.2-9.212a2.7,2.7,0,0,0-.823-2.021,6.635,6.635,0,0,0-2.021-1.316,32.509,32.509,0,0,0-3.408-1.175A37.1,37.1,0,0,1,38.728-15.7a9.639,9.639,0,0,1-3.478-2.914,8.119,8.119,0,0,1-1.457-5.029,8.648,8.648,0,0,1,3.337-7.215,13.712,13.712,0,0,1,8.695-2.608,13.871,13.871,0,0,1,8.789,2.608,9.338,9.338,0,0,1,3.572,7.261H49.491a3.4,3.4,0,0,0-1.175-2.514,4.139,4.139,0,0,0-2.773-.917,3.456,3.456,0,0,0-2.35.775,2.8,2.8,0,0,0-.893,2.233,2.767,2.767,0,0,0,1.5,2.491A24.654,24.654,0,0,0,48.5-19.6,43.467,43.467,0,0,1,53.7-17.531a9.887,9.887,0,0,1,3.454,2.867,7.675,7.675,0,0,1,1.457,4.841A9.5,9.5,0,0,1,57.175-4.7a10.04,10.04,0,0,1-4.16,3.666A14.239,14.239,0,0,1,46.577.329Zm36.1-6.157H70.359L68.385,0H59.972L71.91-32.994h9.306L93.154,0H84.647Zm-2.068-6.2L76.516-24.111,72.474-12.032Zm47.047-20.962v6.439H118.91V0h-8.037V-26.555h-8.742v-6.439ZM145.888.329a17.22,17.22,0,0,1-8.531-2.162,16.162,16.162,0,0,1-6.157-6.04,16.879,16.879,0,0,1-2.28-8.719,16.754,16.754,0,0,1,2.28-8.7,16.213,16.213,0,0,1,6.157-6.016,17.22,17.22,0,0,1,8.531-2.162,17.22,17.22,0,0,1,8.53,2.162,15.874,15.874,0,0,1,6.11,6.016,17.028,17.028,0,0,1,2.232,8.7,17.016,17.016,0,0,1-2.256,8.719,16.041,16.041,0,0,1-6.11,6.04A17.089,17.089,0,0,1,145.888.329Zm0-7.332a8.1,8.1,0,0,0,6.322-2.632,9.992,9.992,0,0,0,2.373-6.956,9.973,9.973,0,0,0-2.373-6.979,8.132,8.132,0,0,0-6.322-2.609,8.225,8.225,0,0,0-6.368,2.585,9.954,9.954,0,0,0-2.374,7,9.973,9.973,0,0,0,2.374,6.98A8.188,8.188,0,0,0,145.888-7Zm32.289-25.991a19.191,19.191,0,0,1,9.118,2.068,14.774,14.774,0,0,1,6.04,5.8,17.055,17.055,0,0,1,2.138,8.625,17.089,17.089,0,0,1-2.138,8.6,14.7,14.7,0,0,1-6.063,5.828A19.227,19.227,0,0,1,178.177,0H165.816V-32.994ZM177.66-6.956a9.7,9.7,0,0,0,7.1-2.491,9.432,9.432,0,0,0,2.538-7.05,9.594,9.594,0,0,0-2.538-7.1,9.594,9.594,0,0,0-7.1-2.538h-3.807V-6.956Zm41.454,1.128H206.8L204.826,0h-8.413l11.938-32.994h9.306L229.6,0h-8.507Zm-2.068-6.2-4.089-12.079-4.042,12.079ZM260.1-32.994,248.677-10.9V0H240.64V-10.9l-11.421-22.09h9.118l6.392,13.818,6.345-13.818Z" transform="translate(-2113 -5320)"/></g></svg>