<svg xmlns="http://www.w3.org/2000/svg" width="306" height="92" viewBox="0 0 306 92"><g transform="translate(-8978 -19478)"><rect width="306" height="92" transform="translate(8978 19478)" fill="none"/><path d="M56.675,305.35l-8.343,20.433h-1.7l-5.146-10.491-5.146,10.491h-1.7L26.3,305.35h5.9l3.8,9.642L40.638,305h1.7l4.646,9.992,3.8-9.642h5.9m23.181,20.084H74.611V317.39H67.217v8.043H61.971V305.35h5.246v7.344h7.394V305.35h5.246v20.084m27.628-10.042c0,5.945-4.9,10.392-10.941,10.392S85.7,321.337,85.7,315.392A10.519,10.519,0,0,1,96.543,305c6.045,0,10.941,4.5,10.941,10.392m-16.387,0a5.245,5.245,0,0,0,5.5,5.6,5.6,5.6,0,0,0,0-11.191,5.272,5.272,0,0,0-5.5,5.6m59.152-10.042-8.343,20.433h-1.7l-5.146-10.491-5.146,10.491h-1.7l-8.343-20.433h5.9l3.8,9.642L134.212,305h1.7l4.646,9.992,3.8-9.642h5.9m23.181,20.084h-5.246V317.39h-7.394v8.043h-5.246V305.35h5.246v7.344h7.394V305.35h5.246v20.084m17.686-3.8h-5.5l-1.6,3.8h-5.645L187.269,305h2.548l8.593,20.433h-5.645l-1.649-3.8Zm-2.7-8.843-1.8,4.646h3.5l-1.7-4.646Zm108.012,8.843h-5.5l-1.6,3.8h-5.645L292.584,305h2.548l8.593,20.433h-5.645l-1.649-3.8Zm-2.748-8.843-1.8,4.646h3.5l-1.7-4.646Zm-76.938-2.748H210.7v15.338h-5.246V310.046H199.41v-4.7H216.8l-.05,4.7m42.665-4.7-8.343,20.433h-1.7l-5.146-10.491-5.146,10.491h-1.7l-8.343-20.433h5.945l3.8,9.642L243.424,305h1.7l4.646,9.992,3.8-9.642h5.845m19.284,4.7h-8.743v2.748H276.2v4.4h-6.245v3.5h9.093v4.7H264.657V305.3h13.989l.05,4.746m41.566,15.387-4.546-6.245h-2.2v6.245h-5.246V305.35h7.944c4.446,0,7.794,2.648,7.794,6.894a6.408,6.408,0,0,1-3.2,5.7l5.346,7.444h-5.9Zm-6.745-10.841h2.7a2.349,2.349,0,1,0,0-4.7h-2.7v4.7Z" transform="translate(8954.7 19209)"/></g></svg>