<svg xmlns="http://www.w3.org/2000/svg" width="306" height="92" viewBox="0 0 306 92"><g transform="translate(-8601 -19478)"><rect width="306" height="92" transform="translate(8601 19478)" fill="none"/><g transform="translate(8615.757 19494)"><g transform="translate(4.243 3)"><path d="M30.442,56.2,35.187,9.283c.267-2.406.735-2.807,1.537-2.807h.468V3.8H29.506V6.475h.468c1.069,0,1.6.736,1.47,2.807L28.7,37.353,25.563,9.283c-.268-2.205.267-2.807,1.471-2.807h.133V3.8H16.474V6.475h.535c1,0,1,.4,1.2,2.807l.8,7.152L16.541,39.157,13.734,9.283c-.335-2.406.134-2.807,1.2-2.807h.133V3.8H4.243V6.475h.535c1.136,0,1.2.4,1.47,2.807L11.06,56.2h6.951l2.74-24.127L23.558,56.2Zm46.05-30.743c0-3.275,0-4.411,2.072-4.411,1.4,0,1.4.535,1.4,3.275v28c0,1-.335,1.2-.869,1.2h-.334V56.2h10.76V53.527h-.468c-.735,0-.935-.268-.935-1.337V22.851c0-4.813-1-6.684-5.748-6.684-2.741,0-4.745.869-6.015,3.876-.535-2.673-1.939-3.876-5.614-3.876-3.008,0-4.612.936-5.814,3.876V16.166l-9.223.736v2.673h.4c.6,0,1.069.468,1.069,1.939V51.989c0,1.2-.267,1.538-1.069,1.538h-.4V56.2H66V53.527h-.4c-.535,0-.669-.2-.669-1V25.457c0-3.275-.067-4.411,2-4.411,1.4,0,1.4.535,1.4,3.275v28c0,1-.334,1.2-.8,1.2h-.468V56.2h10.56V53.527h-.134c-.735,0-1-.268-1-1.337ZM151.682,56.2h12.9V53.527h-.87c-1.136,0-1.47-.468-1.47-2.807V30.536h6.817V50.719c0,2.339-.334,2.807-1.4,2.807h-1V56.2h12.833V53.527h-1.069c-1.138,0-1.337-.468-1.337-2.807V9.283c0-2.406.2-2.807,1.337-2.807h1.069V3.8H166.652V6.475h1c1.07,0,1.4.4,1.4,2.807V27.394h-6.817V9.283c0-2.406.334-2.807,1.47-2.807h.87V3.8h-12.9V6.475h1.137c1.07,0,1.4.4,1.4,2.807V52.056c0,1.137-.334,1.472-1.4,1.472h-1.137Zm97.447,0h10.225V53.527h-.334c-.668,0-.736-.2-.736-1V25.457c0-3.275.068-4.411,2.139-4.411,1.536,0,1.536.535,1.536,3.275v28c0,1-.266,1.2-.734,1.2h-.469V56.2h10.827V53.527h-.468c-.736,0-.869-.268-.869-1.337V22.851c0-4.813-1.2-6.684-5.882-6.684-3.074,0-4.811.936-6.082,3.876V3l-9.824.8V6.475h1c.667,0,1.069.4,1.069,1.872V51.989c0,1.2-.2,1.538-1.069,1.538h-.335Zm-204.25.468c8.556,0,9.758-7.151,9.758-20.251,0-13.166-1.27-20.251-9.758-20.251s-9.757,7.085-9.757,20.251c0,13.1,1.2,20.251,9.757,20.251Zm64.764-.468h10.292V53.527h-.468c-.6,0-.6-.2-.6-1V25.457c0-3.275,0-4.411,2.137-4.411,1.471,0,1.538.535,1.538,3.275v28c0,1-.4,1.2-.8,1.2h-.468V56.2H132.1V53.527h-.468c-.736,0-.935-.268-.935-1.337V22.851c0-4.813-1.137-6.684-5.883-6.684-3.006,0-4.811.936-5.947,3.876V16.166l-9.892.736v2.673h1.07c.6,0,1.069.468,1.069,1.939V51.989c0,1.2-.266,1.538-1.069,1.538h-.4V56.2Zm94.839.468c3.542,0,4.879-1.737,5.614-3.809.668,3.074,1.4,3.809,5.413,3.809,4.678,0,5.28-2.806,5.214-8.287h-2.206c0,3.944-.067,4.344-.8,4.344-.668,0-.668-.334-.668-2.54v-26c0-5.28-1.737-8.02-7.886-8.02-4.879,0-9.691,1.471-9.425,6.75.134,2.407,1.071,4.946,3.61,4.812,2.339-.134,3.408-1.4,3.408-3.342a6.876,6.876,0,0,0-2.606-4.745,7.4,7.4,0,0,1,3.074-.535c1.739,0,2.072,1.337,2.072,3.877v7.285c-8.889,3.008-10.76,4.211-10.76,15.372,0,8.021,1.939,11.028,5.949,11.028Zm-15.3,0c6.616,0,8.153-2,7.819-12.965h-2.741c0,8.688-.267,9.356-3.341,9.356-3.676,0-3.676-1.6-3.676-16.507v-1.2H197.93c0-15.037-1.67-19.181-8.754-19.181-6.416,0-9.758,3.944-9.758,20.518,0,15.772,2.54,20.05,9.759,19.983Zm-88.825,0c6.484,0,8.288-2,8.02-12.965h-2.739c0,8.688-.4,9.356-3.543,9.356-3.943,0-3.743-1.6-3.743-16.507v-1.2h10.359c0-15.037-1.4-19.181-8.355-19.181-6.482,0-9.824,3.944-9.824,20.518,0,15.772,2.539,20.05,9.823,19.983ZM222.194,56.2h10.694V53.527h-.8c-.669,0-.936-.335-.936-1.4V3l-9.958.8V6.475h1.137c.668,0,.935.267.935,1.337V52.257c0,1-.067,1.27-.535,1.27h-.535V56.2Zm-78.065.468c4.88,0,7.42-3.208,7.42-8.019,0-11.295-10.226-17.845-10.226-25.932,0-2.473.869-3.208,2.607-3.208,2.539,0,2.941,1.07,3.408,4.879l.4,3.742h2.941V16.5h-2.338c-.134,1.472-.468,2.006-.6,1.8a6.905,6.905,0,0,0-5.346-2.138c-4.278,0-8.02,1.938-8.02,8.287,0,9.891,10.159,17.444,10.159,25,0,3.275-.735,3.809-3.074,3.809s-2.94-1.069-3.407-6.015l-.335-3.276H134.64V56.2h2.673c.2-1.337.67-2.205,1.07-1.8.869,1,1.8,2.272,5.747,2.272Zm90.763-8.754c0,6.349.936,8.754,7.218,8.754,4.411,0,5.414-1.737,5.414-6.616V43.434H244.85v6.952c0,2.339-.2,2.606-1.069,2.606s-1.07-.267-1.07-2.339V19.508h4.879V16.5h-4.812V6.475h-2.74C238.1,15.365,236.43,16.5,233.823,16.5h-.735v2.941h1.8V47.913ZM44.878,53.259c-1.87,0-1.87-1.069-1.87-16.842,0-15.839,0-16.909,1.87-16.909s1.872,1.07,1.872,16.909,0,16.842-1.872,16.842Zm88.157-35.087c6.683-4.947,8.02-8.689,5.814-12.1-1.2-1.871-3.944-3.074-5.948-1.4-2.407,2-1.8,5.481,2.674,7.486-.8.935-2.674,2.741-4.211,4.278ZM207.69,51.989c-1.6,0-1.6-1.67-1.6-6.95,0-9.624,0-10.894,3.207-12.632V48.915c0,2.473-.333,3.074-1.6,3.074ZM98.347,32.541c.134-12.5.335-13.1,2.072-13.1,1.671,0,1.538.669,1.538,13.1Zm88.892,0c.2-12.5.334-13.1,2.072-13.1s1.47.669,1.47,13.1Z" transform="translate(-4.243 -3)"/></g></g></g></svg>